<mxfile host="app.diagrams.net" agent="Mozilla/5.0 (Macintosh; Intel Mac OS X 10_15_7) AppleWebKit/537.36 (KHTML, like Gecko) Chrome/128.0.0.0 Safari/537.36" version="27.0.6">
  <diagram name="Page-1" id="_K-LyTklmX5GrU5QMIH2">
    <mxGraphModel dx="1584" dy="916" grid="0" gridSize="10" guides="1" tooltips="1" connect="1" arrows="1" fold="1" page="1" pageScale="1" pageWidth="827" pageHeight="1169" math="0" shadow="0">
      <root>
        <mxCell id="0" />
        <mxCell id="1" parent="0" />
        <mxCell id="L-zFk1L3agixIbhQxRmb-177" value="Availability Zone (ap-southeast-1b)" style="fillColor=none;strokeColor=#147EBA;dashed=1;verticalAlign=top;fontStyle=0;fontColor=#147EBA;whiteSpace=wrap;html=1;" vertex="1" parent="1">
          <mxGeometry x="424" y="330" width="300" height="490" as="geometry" />
        </mxCell>
        <mxCell id="L-zFk1L3agixIbhQxRmb-176" value="Availability Zone (ap-southeast-1a)" style="fillColor=none;strokeColor=#147EBA;dashed=1;verticalAlign=top;fontStyle=0;fontColor=#147EBA;whiteSpace=wrap;html=1;" vertex="1" parent="1">
          <mxGeometry x="104" y="330" width="300" height="490" as="geometry" />
        </mxCell>
        <mxCell id="L-zFk1L3agixIbhQxRmb-170" value="Private subnet (10.0.6.0/24)" style="points=[[0,0],[0.25,0],[0.5,0],[0.75,0],[1,0],[1,0.25],[1,0.5],[1,0.75],[1,1],[0.75,1],[0.5,1],[0.25,1],[0,1],[0,0.75],[0,0.5],[0,0.25]];outlineConnect=0;gradientColor=none;html=1;whiteSpace=wrap;fontSize=12;fontStyle=0;container=1;pointerEvents=0;collapsible=0;recursiveResize=0;shape=mxgraph.aws4.group;grIcon=mxgraph.aws4.group_security_group;grStroke=0;strokeColor=#00A4A6;fillColor=#E6F6F7;verticalAlign=top;align=left;spacingLeft=30;fontColor=#147EBA;dashed=0;" vertex="1" parent="1">
          <mxGeometry x="444" y="670" width="260" height="130" as="geometry" />
        </mxCell>
        <mxCell id="L-zFk1L3agixIbhQxRmb-171" value="" style="sketch=0;outlineConnect=0;fontColor=#232F3E;gradientColor=none;fillColor=#C925D1;strokeColor=none;dashed=0;verticalLabelPosition=bottom;verticalAlign=top;align=center;html=1;fontSize=12;fontStyle=0;aspect=fixed;pointerEvents=1;shape=mxgraph.aws4.rds_postgresql_instance;" vertex="1" parent="L-zFk1L3agixIbhQxRmb-170">
          <mxGeometry x="100" y="35" width="60" height="60" as="geometry" />
        </mxCell>
        <mxCell id="L-zFk1L3agixIbhQxRmb-150" value="Private subnet (10.0.5.0/24)" style="points=[[0,0],[0.25,0],[0.5,0],[0.75,0],[1,0],[1,0.25],[1,0.5],[1,0.75],[1,1],[0.75,1],[0.5,1],[0.25,1],[0,1],[0,0.75],[0,0.5],[0,0.25]];outlineConnect=0;gradientColor=none;html=1;whiteSpace=wrap;fontSize=12;fontStyle=0;container=1;pointerEvents=0;collapsible=0;recursiveResize=0;shape=mxgraph.aws4.group;grIcon=mxgraph.aws4.group_security_group;grStroke=0;strokeColor=#00A4A6;fillColor=#E6F6F7;verticalAlign=top;align=left;spacingLeft=30;fontColor=#147EBA;dashed=0;" vertex="1" parent="1">
          <mxGeometry x="124" y="670" width="260" height="130" as="geometry" />
        </mxCell>
        <mxCell id="L-zFk1L3agixIbhQxRmb-157" value="" style="sketch=0;outlineConnect=0;fontColor=#232F3E;gradientColor=none;fillColor=#C925D1;strokeColor=none;dashed=0;verticalLabelPosition=bottom;verticalAlign=top;align=center;html=1;fontSize=12;fontStyle=0;aspect=fixed;pointerEvents=1;shape=mxgraph.aws4.rds_postgresql_instance;" vertex="1" parent="L-zFk1L3agixIbhQxRmb-150">
          <mxGeometry x="100" y="35" width="60" height="60" as="geometry" />
        </mxCell>
        <mxCell id="L-zFk1L3agixIbhQxRmb-118" value="" style="edgeStyle=orthogonalEdgeStyle;html=1;endArrow=open;elbow=vertical;startArrow=none;endFill=0;strokeColor=#545B64;rounded=0;strokeWidth=2;" edge="1" parent="L-zFk1L3agixIbhQxRmb-150" target="L-zFk1L3agixIbhQxRmb-171">
          <mxGeometry width="100" relative="1" as="geometry">
            <mxPoint x="158.5" y="79.09000000000003" as="sourcePoint" />
            <mxPoint x="247.5" y="79.09000000000003" as="targetPoint" />
          </mxGeometry>
        </mxCell>
        <mxCell id="L-zFk1L3agixIbhQxRmb-1" value="users" style="sketch=0;outlineConnect=0;gradientColor=none;fontColor=#545B64;strokeColor=none;fillColor=#879196;dashed=0;verticalLabelPosition=bottom;verticalAlign=top;align=center;html=1;fontSize=12;fontStyle=0;aspect=fixed;shape=mxgraph.aws4.illustration_users;pointerEvents=1" vertex="1" parent="1">
          <mxGeometry x="389" y="30" width="50" height="50" as="geometry" />
        </mxCell>
        <mxCell id="L-zFk1L3agixIbhQxRmb-126" value="" style="endArrow=none;html=1;rounded=0;" edge="1" parent="1">
          <mxGeometry width="50" height="50" relative="1" as="geometry">
            <mxPoint x="254" y="840" as="sourcePoint" />
            <mxPoint x="644" y="840" as="targetPoint" />
          </mxGeometry>
        </mxCell>
        <mxCell id="L-zFk1L3agixIbhQxRmb-139" value="Public subnet (10.0.1.0/24)" style="points=[[0,0],[0.25,0],[0.5,0],[0.75,0],[1,0],[1,0.25],[1,0.5],[1,0.75],[1,1],[0.75,1],[0.5,1],[0.25,1],[0,1],[0,0.75],[0,0.5],[0,0.25]];outlineConnect=0;gradientColor=none;html=1;whiteSpace=wrap;fontSize=12;fontStyle=0;container=1;pointerEvents=0;collapsible=0;recursiveResize=0;shape=mxgraph.aws4.group;grIcon=mxgraph.aws4.group_security_group;grStroke=0;strokeColor=#7AA116;fillColor=#F2F6E8;verticalAlign=top;align=left;spacingLeft=30;fontColor=#248814;dashed=0;" vertex="1" parent="1">
          <mxGeometry x="124" y="360" width="260" height="120" as="geometry" />
        </mxCell>
        <mxCell id="L-zFk1L3agixIbhQxRmb-142" value="Private subnet (10.0.3.0/24)" style="points=[[0,0],[0.25,0],[0.5,0],[0.75,0],[1,0],[1,0.25],[1,0.5],[1,0.75],[1,1],[0.75,1],[0.5,1],[0.25,1],[0,1],[0,0.75],[0,0.5],[0,0.25]];outlineConnect=0;gradientColor=none;html=1;whiteSpace=wrap;fontSize=12;fontStyle=0;container=1;pointerEvents=0;collapsible=0;recursiveResize=0;shape=mxgraph.aws4.group;grIcon=mxgraph.aws4.group_security_group;grStroke=0;strokeColor=#00A4A6;fillColor=#E6F6F7;verticalAlign=top;align=left;spacingLeft=30;fontColor=#147EBA;dashed=0;" vertex="1" parent="1">
          <mxGeometry x="124" y="510" width="260" height="130" as="geometry" />
        </mxCell>
        <mxCell id="L-zFk1L3agixIbhQxRmb-143" value="" style="sketch=0;outlineConnect=0;fontColor=#232F3E;gradientColor=none;fillColor=#ED7100;strokeColor=none;dashed=0;verticalLabelPosition=bottom;verticalAlign=top;align=center;html=1;fontSize=12;fontStyle=0;aspect=fixed;pointerEvents=1;shape=mxgraph.aws4.instance2;" vertex="1" parent="L-zFk1L3agixIbhQxRmb-142">
          <mxGeometry x="40" y="35" width="48" height="48" as="geometry" />
        </mxCell>
        <mxCell id="L-zFk1L3agixIbhQxRmb-144" value="" style="sketch=0;outlineConnect=0;fontColor=#232F3E;gradientColor=none;fillColor=#ED7100;strokeColor=none;dashed=0;verticalLabelPosition=bottom;verticalAlign=top;align=center;html=1;fontSize=12;fontStyle=0;aspect=fixed;pointerEvents=1;shape=mxgraph.aws4.instance2;" vertex="1" parent="L-zFk1L3agixIbhQxRmb-142">
          <mxGeometry x="170" y="35" width="48" height="48" as="geometry" />
        </mxCell>
        <mxCell id="L-zFk1L3agixIbhQxRmb-145" value="" style="edgeStyle=orthogonalEdgeStyle;html=1;endArrow=block;elbow=vertical;startArrow=block;startFill=1;endFill=1;strokeColor=#545B64;rounded=0;" edge="1" parent="L-zFk1L3agixIbhQxRmb-142" source="L-zFk1L3agixIbhQxRmb-143" target="L-zFk1L3agixIbhQxRmb-144">
          <mxGeometry width="100" relative="1" as="geometry">
            <mxPoint x="410" y="64.5" as="sourcePoint" />
            <mxPoint x="510" y="64.5" as="targetPoint" />
          </mxGeometry>
        </mxCell>
        <mxCell id="L-zFk1L3agixIbhQxRmb-146" value="gRPC" style="text;html=1;align=center;verticalAlign=middle;whiteSpace=wrap;rounded=0;" vertex="1" parent="L-zFk1L3agixIbhQxRmb-142">
          <mxGeometry x="100" y="34" width="60" height="30" as="geometry" />
        </mxCell>
        <mxCell id="L-zFk1L3agixIbhQxRmb-147" value="API Gateway EC2 Instance" style="text;html=1;align=center;verticalAlign=middle;whiteSpace=wrap;rounded=0;" vertex="1" parent="L-zFk1L3agixIbhQxRmb-142">
          <mxGeometry x="19" y="88" width="90" height="30" as="geometry" />
        </mxCell>
        <mxCell id="L-zFk1L3agixIbhQxRmb-148" value="Auth Service EC2 Instance" style="text;html=1;align=center;verticalAlign=middle;whiteSpace=wrap;rounded=0;" vertex="1" parent="L-zFk1L3agixIbhQxRmb-142">
          <mxGeometry x="149" y="88" width="90" height="30" as="geometry" />
        </mxCell>
        <mxCell id="L-zFk1L3agixIbhQxRmb-158" value="" style="edgeStyle=orthogonalEdgeStyle;html=1;endArrow=block;elbow=vertical;startArrow=block;startFill=1;endFill=1;strokeColor=#545B64;rounded=0;" edge="1" parent="1" source="L-zFk1L3agixIbhQxRmb-142" target="L-zFk1L3agixIbhQxRmb-140">
          <mxGeometry width="100" relative="1" as="geometry">
            <mxPoint x="-56" y="570" as="sourcePoint" />
            <mxPoint x="44" y="570" as="targetPoint" />
          </mxGeometry>
        </mxCell>
        <mxCell id="L-zFk1L3agixIbhQxRmb-159" value="" style="edgeStyle=orthogonalEdgeStyle;html=1;endArrow=block;elbow=vertical;startArrow=block;startFill=1;endFill=1;strokeColor=#545B64;rounded=0;" edge="1" parent="1" source="L-zFk1L3agixIbhQxRmb-157" target="L-zFk1L3agixIbhQxRmb-144">
          <mxGeometry width="100" relative="1" as="geometry">
            <mxPoint x="134" y="960" as="sourcePoint" />
            <mxPoint x="234" y="960" as="targetPoint" />
          </mxGeometry>
        </mxCell>
        <mxCell id="L-zFk1L3agixIbhQxRmb-160" value="Public subnet (10.0.2.0/24)" style="points=[[0,0],[0.25,0],[0.5,0],[0.75,0],[1,0],[1,0.25],[1,0.5],[1,0.75],[1,1],[0.75,1],[0.5,1],[0.25,1],[0,1],[0,0.75],[0,0.5],[0,0.25]];outlineConnect=0;gradientColor=none;html=1;whiteSpace=wrap;fontSize=12;fontStyle=0;container=1;pointerEvents=0;collapsible=0;recursiveResize=0;shape=mxgraph.aws4.group;grIcon=mxgraph.aws4.group_security_group;grStroke=0;strokeColor=#7AA116;fillColor=#F2F6E8;verticalAlign=top;align=left;spacingLeft=30;fontColor=#248814;dashed=0;" vertex="1" parent="1">
          <mxGeometry x="444" y="360" width="260" height="120" as="geometry" />
        </mxCell>
        <mxCell id="L-zFk1L3agixIbhQxRmb-163" value="Private subnet (10.0.4.0/24)" style="points=[[0,0],[0.25,0],[0.5,0],[0.75,0],[1,0],[1,0.25],[1,0.5],[1,0.75],[1,1],[0.75,1],[0.5,1],[0.25,1],[0,1],[0,0.75],[0,0.5],[0,0.25]];outlineConnect=0;gradientColor=none;html=1;whiteSpace=wrap;fontSize=12;fontStyle=0;container=1;pointerEvents=0;collapsible=0;recursiveResize=0;shape=mxgraph.aws4.group;grIcon=mxgraph.aws4.group_security_group;grStroke=0;strokeColor=#00A4A6;fillColor=#E6F6F7;verticalAlign=top;align=left;spacingLeft=30;fontColor=#147EBA;dashed=0;" vertex="1" parent="1">
          <mxGeometry x="444" y="510" width="260" height="130" as="geometry" />
        </mxCell>
        <mxCell id="L-zFk1L3agixIbhQxRmb-164" value="" style="sketch=0;outlineConnect=0;fontColor=#232F3E;gradientColor=none;fillColor=#ED7100;strokeColor=none;dashed=0;verticalLabelPosition=bottom;verticalAlign=top;align=center;html=1;fontSize=12;fontStyle=0;aspect=fixed;pointerEvents=1;shape=mxgraph.aws4.instance2;" vertex="1" parent="L-zFk1L3agixIbhQxRmb-163">
          <mxGeometry x="40" y="35" width="48" height="48" as="geometry" />
        </mxCell>
        <mxCell id="L-zFk1L3agixIbhQxRmb-165" value="" style="sketch=0;outlineConnect=0;fontColor=#232F3E;gradientColor=none;fillColor=#ED7100;strokeColor=none;dashed=0;verticalLabelPosition=bottom;verticalAlign=top;align=center;html=1;fontSize=12;fontStyle=0;aspect=fixed;pointerEvents=1;shape=mxgraph.aws4.instance2;" vertex="1" parent="L-zFk1L3agixIbhQxRmb-163">
          <mxGeometry x="170" y="35" width="48" height="48" as="geometry" />
        </mxCell>
        <mxCell id="L-zFk1L3agixIbhQxRmb-166" value="" style="edgeStyle=orthogonalEdgeStyle;html=1;endArrow=block;elbow=vertical;startArrow=block;startFill=1;endFill=1;strokeColor=#545B64;rounded=0;" edge="1" parent="L-zFk1L3agixIbhQxRmb-163" source="L-zFk1L3agixIbhQxRmb-164" target="L-zFk1L3agixIbhQxRmb-165">
          <mxGeometry width="100" relative="1" as="geometry">
            <mxPoint x="410" y="64.5" as="sourcePoint" />
            <mxPoint x="510" y="64.5" as="targetPoint" />
          </mxGeometry>
        </mxCell>
        <mxCell id="L-zFk1L3agixIbhQxRmb-167" value="gRPC" style="text;html=1;align=center;verticalAlign=middle;whiteSpace=wrap;rounded=0;" vertex="1" parent="L-zFk1L3agixIbhQxRmb-163">
          <mxGeometry x="100" y="34" width="60" height="30" as="geometry" />
        </mxCell>
        <mxCell id="L-zFk1L3agixIbhQxRmb-168" value="API Gateway EC2 Instance" style="text;html=1;align=center;verticalAlign=middle;whiteSpace=wrap;rounded=0;" vertex="1" parent="L-zFk1L3agixIbhQxRmb-163">
          <mxGeometry x="19" y="88" width="90" height="30" as="geometry" />
        </mxCell>
        <mxCell id="L-zFk1L3agixIbhQxRmb-169" value="Auth Service EC2 Instance" style="text;html=1;align=center;verticalAlign=middle;whiteSpace=wrap;rounded=0;" vertex="1" parent="L-zFk1L3agixIbhQxRmb-163">
          <mxGeometry x="149" y="88" width="90" height="30" as="geometry" />
        </mxCell>
        <mxCell id="L-zFk1L3agixIbhQxRmb-172" value="" style="edgeStyle=orthogonalEdgeStyle;html=1;endArrow=block;elbow=vertical;startArrow=block;startFill=1;endFill=1;strokeColor=#545B64;rounded=0;" edge="1" parent="1" source="L-zFk1L3agixIbhQxRmb-163" target="L-zFk1L3agixIbhQxRmb-196">
          <mxGeometry width="100" relative="1" as="geometry">
            <mxPoint x="264" y="570" as="sourcePoint" />
            <mxPoint x="574" y="450.5" as="targetPoint" />
            <Array as="points" />
          </mxGeometry>
        </mxCell>
        <mxCell id="L-zFk1L3agixIbhQxRmb-174" value="" style="endArrow=none;html=1;rounded=0;" edge="1" parent="1">
          <mxGeometry width="50" height="50" relative="1" as="geometry">
            <mxPoint x="644" y="838.5000000000002" as="sourcePoint" />
            <mxPoint x="644.0000000000002" y="590" as="targetPoint" />
          </mxGeometry>
        </mxCell>
        <mxCell id="L-zFk1L3agixIbhQxRmb-175" value="" style="edgeStyle=orthogonalEdgeStyle;html=1;endArrow=none;elbow=vertical;startArrow=block;startFill=1;strokeColor=#545B64;rounded=0;" edge="1" parent="1" source="L-zFk1L3agixIbhQxRmb-157">
          <mxGeometry width="100" relative="1" as="geometry">
            <mxPoint x="334" y="700" as="sourcePoint" />
            <mxPoint x="254" y="840" as="targetPoint" />
          </mxGeometry>
        </mxCell>
        <mxCell id="L-zFk1L3agixIbhQxRmb-178" style="edgeStyle=orthogonalEdgeStyle;rounded=0;orthogonalLoop=1;jettySize=auto;html=1;exitX=0.5;exitY=1;exitDx=0;exitDy=0;" edge="1" parent="1" source="L-zFk1L3agixIbhQxRmb-177" target="L-zFk1L3agixIbhQxRmb-177">
          <mxGeometry relative="1" as="geometry" />
        </mxCell>
        <mxCell id="L-zFk1L3agixIbhQxRmb-179" style="edgeStyle=orthogonalEdgeStyle;rounded=0;orthogonalLoop=1;jettySize=auto;html=1;exitX=0.5;exitY=1;exitDx=0;exitDy=0;" edge="1" parent="1" source="L-zFk1L3agixIbhQxRmb-177" target="L-zFk1L3agixIbhQxRmb-177">
          <mxGeometry relative="1" as="geometry" />
        </mxCell>
        <mxCell id="L-zFk1L3agixIbhQxRmb-119" value="&lt;b&gt;RDS Multi-AZ&lt;br&gt;Failover to Standby RDS Instance&lt;/b&gt;" style="text;html=1;align=center;verticalAlign=middle;whiteSpace=wrap;rounded=0;fillColor=default;strokeColor=default;" vertex="1" parent="1">
          <mxGeometry x="354" y="750" width="126" height="60" as="geometry" />
        </mxCell>
        <mxCell id="L-zFk1L3agixIbhQxRmb-181" value="VPC" style="points=[[0,0],[0.25,0],[0.5,0],[0.75,0],[1,0],[1,0.25],[1,0.5],[1,0.75],[1,1],[0.75,1],[0.5,1],[0.25,1],[0,1],[0,0.75],[0,0.5],[0,0.25]];outlineConnect=0;gradientColor=none;html=1;whiteSpace=wrap;fontSize=12;fontStyle=0;container=1;pointerEvents=0;collapsible=0;recursiveResize=0;shape=mxgraph.aws4.group;grIcon=mxgraph.aws4.group_vpc2;strokeColor=#8C4FFF;fillColor=none;verticalAlign=top;align=left;spacingLeft=30;fontColor=#AAB7B8;dashed=0;" vertex="1" parent="1">
          <mxGeometry x="74" y="180" width="680" height="670" as="geometry" />
        </mxCell>
        <mxCell id="L-zFk1L3agixIbhQxRmb-183" value="" style="sketch=0;outlineConnect=0;fontColor=#232F3E;gradientColor=none;fillColor=#8C4FFF;strokeColor=none;dashed=0;verticalLabelPosition=bottom;verticalAlign=top;align=center;html=1;fontSize=12;fontStyle=0;aspect=fixed;pointerEvents=1;shape=mxgraph.aws4.application_load_balancer;" vertex="1" parent="L-zFk1L3agixIbhQxRmb-181">
          <mxGeometry x="315" y="50" width="50" height="50" as="geometry" />
        </mxCell>
        <mxCell id="L-zFk1L3agixIbhQxRmb-186" value="Application Load Balancer&lt;br&gt;(Round Robin)" style="text;html=1;align=center;verticalAlign=middle;whiteSpace=wrap;rounded=0;" vertex="1" parent="L-zFk1L3agixIbhQxRmb-181">
          <mxGeometry x="365" y="60" width="155" height="30" as="geometry" />
        </mxCell>
        <mxCell id="L-zFk1L3agixIbhQxRmb-188" value="" style="sketch=0;outlineConnect=0;fontColor=#232F3E;gradientColor=none;fillColor=#8C4FFF;strokeColor=none;dashed=0;verticalLabelPosition=bottom;verticalAlign=top;align=center;html=1;fontSize=12;fontStyle=0;aspect=fixed;pointerEvents=1;shape=mxgraph.aws4.internet_gateway;" vertex="1" parent="L-zFk1L3agixIbhQxRmb-181">
          <mxGeometry x="315" y="-30" width="50" height="50" as="geometry" />
        </mxCell>
        <mxCell id="L-zFk1L3agixIbhQxRmb-189" value="" style="edgeStyle=orthogonalEdgeStyle;html=1;endArrow=block;elbow=vertical;startArrow=block;startFill=1;endFill=1;strokeColor=#545B64;rounded=0;" edge="1" parent="L-zFk1L3agixIbhQxRmb-181" source="L-zFk1L3agixIbhQxRmb-188" target="L-zFk1L3agixIbhQxRmb-183">
          <mxGeometry width="100" relative="1" as="geometry">
            <mxPoint x="-10" y="320" as="sourcePoint" />
            <mxPoint x="90" y="320" as="targetPoint" />
          </mxGeometry>
        </mxCell>
        <mxCell id="L-zFk1L3agixIbhQxRmb-184" value="" style="edgeStyle=orthogonalEdgeStyle;html=1;endArrow=none;elbow=vertical;startArrow=block;startFill=1;strokeColor=#545B64;rounded=0;" edge="1" parent="1" source="L-zFk1L3agixIbhQxRmb-176" target="L-zFk1L3agixIbhQxRmb-183">
          <mxGeometry width="100" relative="1" as="geometry">
            <mxPoint x="124" y="540" as="sourcePoint" />
            <mxPoint x="224" y="540" as="targetPoint" />
          </mxGeometry>
        </mxCell>
        <mxCell id="L-zFk1L3agixIbhQxRmb-185" value="" style="edgeStyle=orthogonalEdgeStyle;html=1;endArrow=block;elbow=vertical;startArrow=none;endFill=1;strokeColor=#545B64;rounded=0;entryX=0.5;entryY=0;entryDx=0;entryDy=0;" edge="1" parent="1" source="L-zFk1L3agixIbhQxRmb-183" target="L-zFk1L3agixIbhQxRmb-177">
          <mxGeometry width="100" relative="1" as="geometry">
            <mxPoint x="414" y="290" as="sourcePoint" />
            <mxPoint x="224" y="540" as="targetPoint" />
          </mxGeometry>
        </mxCell>
        <mxCell id="L-zFk1L3agixIbhQxRmb-190" value="Internet Gateway" style="text;html=1;align=center;verticalAlign=middle;whiteSpace=wrap;rounded=0;" vertex="1" parent="1">
          <mxGeometry x="464" y="140" width="60" height="30" as="geometry" />
        </mxCell>
        <mxCell id="L-zFk1L3agixIbhQxRmb-191" value="Region (ap-southeast-1)&lt;div&gt;&lt;br&gt;&lt;/div&gt;" style="points=[[0,0],[0.25,0],[0.5,0],[0.75,0],[1,0],[1,0.25],[1,0.5],[1,0.75],[1,1],[0.75,1],[0.5,1],[0.25,1],[0,1],[0,0.75],[0,0.5],[0,0.25]];outlineConnect=0;gradientColor=none;html=1;whiteSpace=wrap;fontSize=12;fontStyle=0;container=1;pointerEvents=0;collapsible=0;recursiveResize=0;shape=mxgraph.aws4.group;grIcon=mxgraph.aws4.group_region;strokeColor=#00A4A6;fillColor=none;verticalAlign=top;align=left;spacingLeft=30;fontColor=#147EBA;dashed=1;" vertex="1" parent="1">
          <mxGeometry x="24" y="130" width="780" height="760" as="geometry" />
        </mxCell>
        <mxCell id="L-zFk1L3agixIbhQxRmb-140" value="" style="sketch=0;outlineConnect=0;fontColor=#232F3E;gradientColor=none;fillColor=#8C4FFF;strokeColor=none;dashed=0;verticalLabelPosition=bottom;verticalAlign=top;align=center;html=1;fontSize=12;fontStyle=0;aspect=fixed;pointerEvents=1;shape=mxgraph.aws4.nat_gateway;" vertex="1" parent="L-zFk1L3agixIbhQxRmb-191">
          <mxGeometry x="135.5" y="263.5" width="57" height="57" as="geometry" />
        </mxCell>
        <mxCell id="L-zFk1L3agixIbhQxRmb-141" value="NAT Gateway" style="text;html=1;align=center;verticalAlign=middle;whiteSpace=wrap;rounded=0;" vertex="1" parent="L-zFk1L3agixIbhQxRmb-191">
          <mxGeometry x="119" y="320" width="90" height="30" as="geometry" />
        </mxCell>
        <mxCell id="L-zFk1L3agixIbhQxRmb-194" value="" style="sketch=0;outlineConnect=0;fontColor=#232F3E;gradientColor=none;fillColor=#ED7100;strokeColor=none;dashed=0;verticalLabelPosition=bottom;verticalAlign=top;align=center;html=1;fontSize=12;fontStyle=0;aspect=fixed;pointerEvents=1;shape=mxgraph.aws4.instance2;" vertex="1" parent="L-zFk1L3agixIbhQxRmb-191">
          <mxGeometry x="266" y="268" width="48" height="48" as="geometry" />
        </mxCell>
        <mxCell id="L-zFk1L3agixIbhQxRmb-195" value="Bastion Host" style="text;html=1;align=center;verticalAlign=middle;whiteSpace=wrap;rounded=0;" vertex="1" parent="L-zFk1L3agixIbhQxRmb-191">
          <mxGeometry x="245" y="320" width="90" height="30" as="geometry" />
        </mxCell>
        <mxCell id="L-zFk1L3agixIbhQxRmb-193" value="" style="edgeStyle=orthogonalEdgeStyle;html=1;endArrow=block;elbow=vertical;startArrow=block;startFill=1;endFill=1;strokeColor=#545B64;rounded=0;" edge="1" parent="1" source="L-zFk1L3agixIbhQxRmb-1" target="L-zFk1L3agixIbhQxRmb-188">
          <mxGeometry width="100" relative="1" as="geometry">
            <mxPoint x="620" y="410" as="sourcePoint" />
            <mxPoint x="720" y="410" as="targetPoint" />
          </mxGeometry>
        </mxCell>
        <mxCell id="L-zFk1L3agixIbhQxRmb-196" value="" style="sketch=0;outlineConnect=0;fontColor=#232F3E;gradientColor=none;fillColor=#8C4FFF;strokeColor=none;dashed=0;verticalLabelPosition=bottom;verticalAlign=top;align=center;html=1;fontSize=12;fontStyle=0;aspect=fixed;pointerEvents=1;shape=mxgraph.aws4.nat_gateway;" vertex="1" parent="1">
          <mxGeometry x="480.5" y="393.5" width="57" height="57" as="geometry" />
        </mxCell>
        <mxCell id="L-zFk1L3agixIbhQxRmb-197" value="NAT Gateway" style="text;html=1;align=center;verticalAlign=middle;whiteSpace=wrap;rounded=0;" vertex="1" parent="1">
          <mxGeometry x="464" y="450" width="90" height="30" as="geometry" />
        </mxCell>
        <mxCell id="L-zFk1L3agixIbhQxRmb-198" value="" style="sketch=0;outlineConnect=0;fontColor=#232F3E;gradientColor=none;fillColor=#ED7100;strokeColor=none;dashed=0;verticalLabelPosition=bottom;verticalAlign=top;align=center;html=1;fontSize=12;fontStyle=0;aspect=fixed;pointerEvents=1;shape=mxgraph.aws4.instance2;" vertex="1" parent="1">
          <mxGeometry x="611" y="398" width="48" height="48" as="geometry" />
        </mxCell>
        <mxCell id="L-zFk1L3agixIbhQxRmb-199" value="Bastion Host" style="text;html=1;align=center;verticalAlign=middle;whiteSpace=wrap;rounded=0;" vertex="1" parent="1">
          <mxGeometry x="590" y="450" width="90" height="30" as="geometry" />
        </mxCell>
        <mxCell id="L-zFk1L3agixIbhQxRmb-200" value="" style="edgeStyle=orthogonalEdgeStyle;html=1;endArrow=block;elbow=vertical;startArrow=block;startFill=1;endFill=1;strokeColor=#545B64;rounded=0;" edge="1" parent="1" source="L-zFk1L3agixIbhQxRmb-194" target="L-zFk1L3agixIbhQxRmb-142">
          <mxGeometry width="100" relative="1" as="geometry">
            <mxPoint x="340" y="560" as="sourcePoint" />
            <mxPoint x="440" y="560" as="targetPoint" />
            <Array as="points">
              <mxPoint x="314" y="480" />
              <mxPoint x="254" y="480" />
            </Array>
          </mxGeometry>
        </mxCell>
        <mxCell id="L-zFk1L3agixIbhQxRmb-201" value="" style="edgeStyle=orthogonalEdgeStyle;html=1;endArrow=block;elbow=vertical;startArrow=block;startFill=1;endFill=1;strokeColor=#545B64;rounded=0;" edge="1" parent="1" source="L-zFk1L3agixIbhQxRmb-198" target="L-zFk1L3agixIbhQxRmb-163">
          <mxGeometry width="100" relative="1" as="geometry">
            <mxPoint x="340" y="560" as="sourcePoint" />
            <mxPoint x="440" y="560" as="targetPoint" />
            <Array as="points">
              <mxPoint x="635" y="480" />
              <mxPoint x="574" y="480" />
            </Array>
          </mxGeometry>
        </mxCell>
      </root>
    </mxGraphModel>
  </diagram>
</mxfile>
